<?xml version="1.0" encoding="UTF-8"?><svg id="Layer_1" xmlns="http://www.w3.org/2000/svg" viewBox="0 0 260 260"><defs><style>.cls-1{fill:#007cb5;}.cls-2{fill:#fff;}</style></defs><path class="cls-1" d="m44.67,46.01h141.26c5.52,0,10,4.48,10,10v106.47c0,44.5-36.13,80.63-80.63,80.63h0c-44.5,0-80.63-36.13-80.63-80.63V56.01c0-5.52,4.48-10,10-10Z" transform="translate(135.99 -39.19) rotate(45)"/><path class="cls-2" d="m122.89,115c13.17,0,24.97,7.24,32.28,18.44.44.67-.03,1.56-.83,1.56h-62.9c-.8,0-1.27-.89-.83-1.56,7.31-11.2,19.1-18.44,32.28-18.44m0-25c-34.57,0-62.83,29.06-64.88,65.73-.13,2.31,1.68,4.27,3.99,4.27h121.78c2.31,0,4.12-1.96,3.99-4.27-2.05-36.67-30.31-65.73-64.88-65.73h0Z"/></svg>